<svg xmlns="http://www.w3.org/2000/svg" xmlns:xlink="http://www.w3.org/1999/xlink" viewBox="0 0 100 70"><defs><filter id="b" x="5" y="5" width="90" height="63.8" filterUnits="userSpaceOnUse" color-interpolation-filters="sRGB"><feColorMatrix values="-1 0 0 0 1 0 -1 0 0 1 0 0 -1 0 1 0 0 0 1 0" result="invert"/><feFlood flood-color="#fff" result="bg"/><feBlend in="invert" in2="bg"/></filter><mask id="a" x="5" y="5" width="90" height="63.8" maskUnits="userSpaceOnUse"><g filter="url(#b)"><path d="M77.7,53,69.91,35.67h.75c2.69,0,4.75-.65,6.12-1.94a7.71,7.71,0,0,0,2.12-5.88c0-2.71-.74-4.77-2.18-6.13s-3.58-2-6.44-2H66.81V53H59V17H73.59c4.24,0,7.59,1,10,2.91A9.33,9.33,0,0,1,87,27.62a8.74,8.74,0,0,1-1.84,5.81,10.51,10.51,0,0,1-5.72,3.25L78.23,37l8.43,16Z" fill="#fff"/><path d="M41,51H21a6,6,0,0,1-6-6V26.18" fill="none" stroke="#fff" stroke-linecap="round" stroke-miterlimit="10" stroke-width="4"/><polygon points="19.99 27.64 15 19 10.01 27.64 19.99 27.64" fill="#fff"/><path d="M21,19H41a6,6,0,0,1,6,6V43.82" fill="none" stroke="#fff" stroke-linecap="round" stroke-miterlimit="10" stroke-width="4"/><polygon points="42.01 42.37 47 51 51.99 42.37 42.01 42.37" fill="#fff"/><path d="M25,35l4,4,8-8" fill="none" stroke="#fff" stroke-linecap="round" stroke-linejoin="round" stroke-width="4"/></g></mask></defs><title>reusable-ui mask</title><g mask="url(#a)"><rect x="5" y="5" width="90" height="60" rx="10"/></g></svg>