<svg xmlns="http://www.w3.org/2000/svg" xmlns:xlink="http://www.w3.org/1999/xlink" viewBox="0 0 100 100"><defs><linearGradient id="a" x1="50" y1="75.29" x2="50" y2="25.09" gradientUnits="userSpaceOnUse"><stop offset="0" stop-color="#ff7300"/><stop offset="0.18" stop-color="#f97c01"/><stop offset="0.47" stop-color="#ea9602"/><stop offset="0.55" stop-color="#e59e03"/><stop offset="0.87" stop-color="#e5c500"/><stop offset="0.99" stop-color="#bf6f00"/></linearGradient><filter id="c" x="5" y="20" width="90" height="63.8" filterUnits="userSpaceOnUse" color-interpolation-filters="sRGB"><feColorMatrix values="-1 0 0 0 1 0 -1 0 0 1 0 0 -1 0 1 0 0 0 1 0" result="invert"/><feFlood flood-color="#fff" result="bg"/><feBlend in="invert" in2="bg"/></filter><mask id="b" x="5" y="20" width="90" height="63.8" maskUnits="userSpaceOnUse"><g filter="url(#c)"><path d="M77.7,68,69.91,50.67h.75c2.69,0,4.75-.65,6.12-1.94a7.71,7.71,0,0,0,2.12-5.88c0-2.71-.74-4.77-2.18-6.13s-3.58-2-6.44-2H66.81V68H59V32H73.59c4.24,0,7.59,1,10,2.91A9.33,9.33,0,0,1,87,42.62a8.74,8.74,0,0,1-1.84,5.81,10.51,10.51,0,0,1-5.72,3.25L78.23,52l8.43,16Z" fill="#fff"/><path d="M41,66H21a6,6,0,0,1-6-6V41.18" fill="none" stroke="#fff" stroke-linecap="round" stroke-miterlimit="10" stroke-width="4"/><polygon points="19.99 42.63 15 34 10.01 42.63 19.99 42.63" fill="#fff"/><path d="M21,34H41a6,6,0,0,1,6,6V58.82" fill="none" stroke="#fff" stroke-linecap="round" stroke-miterlimit="10" stroke-width="4"/><polygon points="42.01 57.37 47 66 51.99 57.37 42.01 57.37" fill="#fff"/><path d="M25,50l4,4,8-8" fill="none" stroke="#fff" stroke-linecap="round" stroke-linejoin="round" stroke-width="4"/></g></mask></defs><title>reusable-ui colorful</title><rect x="9" y="24" width="82" height="52" fill="url(#a)"/><g mask="url(#b)"><rect x="5" y="20" width="90" height="60" rx="10" fill="#2e3192"/></g></svg>